PathFileType  4	(X/Y/Z) C:\Users\antoi\Documents\MyRepositories\mobilecap\ResultsAnalysis
DataRate	CameraRate	NumFrames	NumMarkers	Units	OrigDataRate	OrigDataStartFrame	OrigNumFrames
100.0	100.0	4	51	mm	100.0	102	271
Frame#	Time	r_knee			r_shank_antsup			r_ankle			r_calc			r_5meta			r_toe			L_knee			L_shank_antsup			L_ankle			L_calc			L_5meta			L_toe			r_sh2			r_sh3			r_sh4			L_sh2			L_sh3			r_thigh1			r_thigh2			r_thigh3			r_thigh4			r_thigh5			L_thigh1			L_thigh2			L_thigh3			L_thigh4			r.ASIS			r.PSIS			L.ASIS			L.PSIS			C7			R_Shoulder			L_Shoulder			R_Sternum			L_Sternum			R_humerus			R_elbow_med			R_elbow_lat			R_forearm			R_wrist_radius			R_wrist_ulna			L_humerus			L_elbow_med			L_elbow_lat			L_forearm			L_wrist_radius			L_wrist_ulna			R_HJC			L_HJC			R_HJC_reg			L_HJC_reg			
		X1	Y1	Z1	X2	Y2	Z2	X3	Y3	Z3	X4	Y4	Z4	X5	Y5	Z5	X6	Y6	Z6	X7	Y7	Z7	X8	Y8	Z8	X9	Y9	Z9	X10	Y10	Z10	X11	Y11	Z11	X12	Y12	Z12	X13	Y13	Z13	X14	Y14	Z14	X15	Y15	Z15	X16	Y16	Z16	X17	Y17	Z17	X18	Y18	Z18	X19	Y19	Z19	X20	Y20	Z20	X21	Y21	Z21	X22	Y22	Z22	X23	Y23	Z23	X24	Y24	Z24	X25	Y25	Z25	X26	Y26	Z26	X27	Y27	Z27	X28	Y28	Z28	X29	Y29	Z29	X30	Y30	Z30	X31	Y31	Z31	X32	Y32	Z32	X33	Y33	Z33	X34	Y34	Z34	X35	Y35	Z35	X36	Y36	Z36	X37	Y37	Z37	X38	Y38	Z38	X39	Y39	Z39	X40	Y40	Z40	X41	Y41	Z41	X42	Y42	Z42	X43	Y43	Z43	X44	Y44	Z44	X45	Y45	Z45	X46	Y46	Z46	X47	Y47	Z47	X48	Y48	Z48	X49	Y49	Z49	X50	Y50	Z50	X51	Y51	Z51	

102	1.01000000	-965.84267	704.39095	-441.49620	-1000.21933	678.74888	-413.90974	-1242.24067	423.39302	-471.02535	-1313.39853	393.88891	-523.53564	-1147.01523	344.95110	-425.06463	-1096.83697	359.27085	-475.35786	-978.20770	703.23908	-737.62412	-993.10027	616.76208	-750.18336	-1248.49403	424.97616	-709.44655	-1322.21508	395.59853	-658.21472	-1155.10884	348.45977	-743.54725	-1105.89486	358.98435	-691.54274	-1077.00212	591.59360	-413.04190	-945.36316	638.12387	-450.10084	-1022.87285	552.32870	-468.30726	-1049.67077	684.73933	-756.20363	-1134.98479	596.84531	-753.11508	-962.51535	1005.52773	-483.26224	-920.47200	902.63882	-474.66437	-934.33012	876.63905	-413.64462	-1021.89827	987.85402	-390.67032	-985.55512	878.62818	-390.31894	-1028.81326	1016.35035	-757.04590	-994.64799	878.38298	-770.87612	-1138.28816	986.89437	-741.74736	-1100.27627	854.65962	-729.74790	-982.09337	1128.22987	-454.45817	-1148.00012	1229.59152	-528.88019	-995.57163	1108.24488	-693.04407	-1151.95486	1227.19560	-625.70436	-874.67114	1611.23666	-602.00859	-802.62926	1569.20942	-462.18293	-825.37294	1546.36276	-745.97995	-800.46549	1484.96529	-580.61950	-803.63054	1478.30635	-613.01888	-709.16648	1377.04256	-369.38466	-717.49649	1252.01150	-384.96973	-678.00328	1289.89358	-335.51954	-557.13255	1334.52593	-398.28049	-490.56349	1376.80916	-461.18658	-468.52131	1341.11446	-446.68246	-768.65283	1345.19595	-838.41592	-768.61242	1214.20702	-806.38900	-743.56758	1236.86153	-862.62303	-606.80647	1272.48493	-812.70574	-526.39838	1309.08052	-754.60102	-511.73275	1267.68075	-762.87356	-1084.26918	1080.41866	-483.19752	-1101.63156	1080.40534	-673.07665	-1077.50719	1080.87612	-482.67089	-1083.96265	1076.96406	-640.75996	
103	1.02000000	-966.11701	709.72036	-439.99571	-1001.20057	683.61350	-412.84110	-1240.96989	424.91699	-469.36837	-1312.25034	398.11246	-522.26839	-1146.71694	345.00189	-424.61836	-1096.47240	359.27229	-474.94650	-978.67872	708.07231	-738.34785	-993.84830	621.71014	-751.00954	-1247.61179	426.97183	-710.81635	-1321.41267	398.86268	-659.47399	-1154.92542	348.42232	-743.69887	-1105.68212	359.02066	-691.92479	-1077.57864	596.72916	-411.03193	-945.94562	643.59589	-448.18257	-1022.92817	557.37376	-466.11645	-1050.98088	689.24086	-756.97048	-1135.57442	600.30862	-754.00471	-950.13015	1010.72581	-483.69846	-912.32962	906.11873	-474.23180	-927.51172	881.02460	-413.20824	-1010.24926	996.24956	-390.97266	-978.61078	885.77536	-389.49932	-1015.23518	1023.94012	-757.09851	-987.21018	884.61696	-771.37468	-1125.74004	999.11985	-742.56589	-1093.97533	864.75412	-728.79837	-967.26172	1140.24556	-454.43117	-1134.07399	1239.42272	-529.76066	-979.93949	1120.41355	-693.61470	-1137.71096	1237.07392	-626.59062	-870.29945	1627.48116	-601.19857	-800.29599	1589.76859	-462.99420	-821.82321	1566.87853	-743.59277	-792.93728	1502.88205	-579.98300	-796.26666	1496.29138	-612.53322	-697.46304	1404.06642	-369.22245	-699.52788	1278.48736	-384.06828	-661.66966	1318.99988	-335.21301	-547.56150	1375.53556	-400.77231	-487.74388	1424.43001	-465.38188	-461.61054	1391.51272	-450.83058	-757.42320	1369.18222	-838.13632	-754.13488	1237.87844	-808.34885	-727.87979	1262.62421	-864.18392	-595.83584	1309.63916	-810.32066	-520.75400	1353.36248	-750.70992	-502.11336	1313.87180	-759.17477	-1068.73512	1091.12421	-483.90716	-1085.45700	1091.06249	-673.84358	-1062.08052	1091.57895	-483.05988	-1068.03525	1087.73449	-641.52441	
104	1.03000000	-965.96561	716.68055	-438.08152	-1001.67221	690.98909	-410.48678	-1238.85411	428.88349	-466.93323	-1310.36561	404.17193	-520.28219	-1146.24716	345.14799	-424.09412	-1095.80571	359.17256	-474.31003	-978.54742	714.83798	-738.98758	-993.57723	628.57145	-752.03479	-1245.79405	430.36173	-712.84070	-1319.78490	404.30671	-661.35969	-1154.30938	348.49436	-744.06385	-1105.20361	358.94033	-692.37266	-1077.46823	603.60703	-408.54902	-945.97030	650.82195	-445.79986	-1022.44008	564.04704	-463.65860	-1051.22621	695.62266	-757.99464	-1135.03669	605.76924	-755.48494	-937.04721	1016.90696	-484.27808	-903.60827	910.64167	-473.79459	-919.88621	886.84666	-412.50207	-997.47221	1005.86357	-391.30882	-970.85148	894.18152	-388.63949	-1000.23064	1032.65157	-756.83969	-978.29825	892.28130	-771.46800	-1111.71046	1012.30120	-743.54131	-1085.77920	876.44009	-729.27479	-951.57876	1153.36529	-454.62379	-1119.42004	1249.89259	-530.64332	-963.52599	1133.69360	-692.84289	-1122.69237	1247.67515	-627.58682	-865.60367	1644.49707	-600.33631	-798.04069	1610.16861	-464.38024	-818.19797	1587.44226	-741.69862	-785.09798	1521.52829	-579.53644	-789.10444	1514.73727	-611.20684	-687.56802	1430.78516	-368.99185	-684.80930	1304.47093	-382.70691	-648.33451	1347.56503	-334.53090	-541.35233	1414.23076	-402.52049	-488.04437	1468.27173	-468.46836	-458.63464	1438.10711	-454.05410	-748.29755	1392.77353	-838.04319	-741.71355	1261.44768	-809.75447	-715.23120	1287.74261	-865.30328	-588.11167	1344.90258	-808.94924	-518.15037	1394.16054	-747.73827	-496.28392	1356.49799	-756.03589	-1052.31966	1102.82995	-484.25444	-1068.22176	1102.45482	-674.26097	-1045.49236	1103.41244	-483.49854	-1050.82046	1099.80250	-641.32375	
105	1.04000000	-964.78861	725.53309	-436.00195	-1000.84634	700.31299	-407.61892	-1235.67642	434.60285	-464.07878	-1307.01035	412.73021	-517.44908	-1145.37398	345.53418	-423.58590	-1094.65685	358.94873	-473.50243	-977.21248	723.80317	-739.50519	-991.47019	637.66022	-753.49183	-1242.41469	435.70111	-715.41378	-1316.70688	412.65559	-663.90569	-1152.97451	348.90601	-744.71932	-1104.18443	358.74513	-692.78440	-1076.23569	612.03225	-406.20927	-944.92869	660.07921	-443.28141	-1020.78439	572.59084	-460.97902	-1049.82040	704.16896	-759.01384	-1132.84398	613.66854	-757.19022	-922.79131	1024.67869	-484.72981	-893.94269	916.91589	-473.25863	-911.15995	894.42488	-411.65391	-983.52886	1016.78083	-391.80429	-961.87299	904.02202	-387.97136	-983.94916	1042.71234	-756.37719	-967.44144	901.59486	-771.49081	-1096.17923	1026.30265	-745.03624	-1075.75865	889.34647	-730.28674	-935.30007	1167.81479	-454.83743	-1104.29088	1260.92666	-531.58500	-946.21595	1148.20210	-692.28205	-1107.17212	1258.92100	-628.71485	-860.65096	1662.07839	-599.51248	-795.51396	1630.16136	-466.10398	-814.57088	1607.84744	-739.93126	-777.65323	1540.61888	-579.14807	-782.48585	1533.46901	-609.27211	-679.28109	1456.39014	-368.33333	-673.09354	1329.05102	-381.10942	-637.82708	1374.55673	-333.64943	-537.82355	1449.68924	-403.49788	-490.70292	1507.94864	-470.24808	-458.66723	1480.29143	-456.34410	-741.07379	1415.44357	-838.19283	-730.00255	1284.65074	-808.90282	-705.46392	1311.53430	-866.18019	-583.09840	1377.08852	-807.88219	-517.85409	1430.80551	-745.27868	-493.41932	1394.98845	-753.47136	-1034.97723	1115.42776	-484.72751	-1049.95374	1114.73598	-674.80817	-1027.98491	1116.03414	-484.04457	-1032.64847	1112.78652	-641.35497	
